<svg xmlns="http://www.w3.org/2000/svg" width="140" height="80" viewBox="0 0 140 80">
  <defs>
    <path id="a" d="M7.312 56.384L10.96 55.616V40.4H21.328V37.088H10.96V24.656H24.208L23.488 21.392H7.312V56.384zM27.136 56.384L30.448 55.616V20.912L27.136 21.632V56.384zM52.672 41.984C51.04 39.92 48.256 38.72 45.232 38.72 39.664 38.72 35.632 42.464 35.632 47.6 35.632 52.784 39.856 56.672 45.376 56.672 48.448 56.672 50.752 55.568 52.672 53.168V56.384L55.936 55.616V38.864C55.936 33.2 52.912 30.752 46.096 30.752 43.936 30.752 41.92 30.992 40.144 31.568 39.712 31.664 39.04 31.904 38.224 32.24L39.328 35.024C41.584 33.968 43.552 33.536 46.096 33.536 49.264 33.536 51.52 34.496 52.288 36.32 52.576 36.944 52.672 37.904 52.672 39.296V41.984zM45.664 41.456C49.744 41.456 52.768 44.096 52.768 47.696 52.768 51.344 49.84 53.984 45.856 53.984 41.824 53.984 38.8 51.296 38.8 47.696 38.8 44.048 41.584 41.456 45.664 41.456zM59.152 34.16H62.608V47.696C62.608 51.296 63.184 53.168 64.816 54.656 66.112 55.952 67.408 56.432 69.568 56.432 70.72 56.432 71.872 56.384 73.312 56.096L72.832 53.072C71.824 53.408 71.2 53.552 70.288 53.552 68.032 53.552 66.448 52.208 66.064 49.856L65.972 49.084C65.915 48.544 65.872 47.904 65.872 46.88V34.16H72.544L73.216 31.424H65.872V24.704L62.608 25.376V31.424H59.872L59.152 34.16zM75.328 56H92.848L93.424 52.736H78.976V21.056L75.328 21.728V56zM112.288 41.984C110.656 39.92 107.872 38.72 104.848 38.72 99.28 38.72 95.248 42.464 95.248 47.6 95.248 52.784 99.472 56.672 104.992 56.672 108.064 56.672 110.368 55.568 112.288 53.168V56.384L115.552 55.616V38.864C115.552 33.2 112.528 30.752 105.712 30.752 103.552 30.752 101.536 30.992 99.76 31.568 99.328 31.664 98.656 31.904 97.84 32.24L98.944 35.024C101.2 33.968 103.168 33.536 105.712 33.536 108.88 33.536 111.136 34.496 111.904 36.32 112.192 36.944 112.288 37.904 112.288 39.296V41.984zM105.28 41.456C109.36 41.456 112.384 44.096 112.384 47.696 112.384 51.344 109.456 53.984 105.472 53.984 101.44 53.984 98.416 51.296 98.416 47.696 98.416 44.048 101.2 41.456 105.28 41.456zM118.96 34.16L119.728 31.424H122.512V30.848C122.512 23.906 125.253 20.913 131.742 20.818H132.585A21 21 0 0 1 133.744 20.864L133.168 23.84 132.766 23.81C132.468 23.791 132.242 23.791 131.968 23.791 127.648 23.792 125.776 25.664 125.776 29.84V31.424H133.024L132.352 34.16H125.776V55.616L122.512 56.384V34.16H118.96z"/>
  </defs>
  <g fill="none" fill-rule="evenodd">
    <use fill="#4D4D4D" href="#a" transform="translate(1 1)"/> 
    <use fill="#FFF" href="#a"/> 
  </g>
</svg>
