<?xml version="1.0" encoding="UTF-8" standalone="no"?>
<!DOCTYPE svg PUBLIC "-//W3C//DTD SVG 1.1//EN" "http://www.w3.org/Graphics/SVG/1.1/DTD/svg11.dtd">
<svg xmlns="http://www.w3.org/2000/svg" version="1.1" viewBox="0.00 0.00 200.00 200.00">
<path fill="#000000" d="
  M 163.15 148.09
  L 195.98 196.57
  Q 196.42 197.21 195.69 196.95
  L 130.65 173.37
  A 1.39 1.35 -45.8 0 0 129.63 173.40
  Q 102.04 185.35 73.60 178.52
  C 6.44 162.39 -16.88 77.03 34.17 29.52
  C 67.70 -1.68 118.49 -2.11 152.69 28.31
  C 187.21 59.02 190.92 110.60 163.17 147.16
  Q 162.83 147.62 163.15 148.09
  Z
  M 147.24 146.06
  C 189.24 102.77 166.73 29.99 106.93 19.62
  C 63.97 12.17 24.03 42.93 19.57 85.50
  C 13.35 144.82 75.64 187.22 128.87 159.59
  A 1.12 1.10 -48.5 0 1 129.75 159.53
  L 163.00 171.58
  Q 163.93 171.91 163.37 171.10
  L 147.14 147.14
  A 0.86 0.86 0.0 0 1 147.24 146.06
  Z"
/>
<circle fill="#000000" cx="72.97" cy="74.26" r="13.80"/>
<circle fill="#000000" cx="120.04" cy="74.26" r="13.80"/>
<path fill="#000000" d="
  M 71.74 100.52
  C 71.38 132.61 120.79 133.63 121.30 100.48
  Q 121.31 100.00 121.78 100.00
  L 130.47 100.00
  Q 130.94 100.00 130.94 100.47
  C 130.67 124.71 107.96 139.64 85.43 132.76
  C 71.44 128.48 62.18 115.26 62.04 100.49
  Q 62.03 100.00 62.52 100.00
  L 71.23 100.00
  Q 71.75 100.00 71.74 100.52
  Z"
/>
</svg>
